<?xml version="1.0" encoding="UTF-8" standalone="no"?>
<!-- Created with Inkscape (http://www.inkscape.org/) -->

<svg
   xmlns:dc="http://purl.org/dc/elements/1.1/"
   xmlns:cc="http://creativecommons.org/ns#"
   xmlns:rdf="http://www.w3.org/1999/02/22-rdf-syntax-ns#"
   xmlns:svg="http://www.w3.org/2000/svg"
   xmlns="http://www.w3.org/2000/svg"
   xmlns:sodipodi="http://sodipodi.sourceforge.net/DTD/sodipodi-0.dtd"
   xmlns:inkscape="http://www.inkscape.org/namespaces/inkscape"
   width="517.52649"
   height="382.27014"
   id="svg2"
   version="1.1"
   inkscape:version="0.92.1 r"
   sodipodi:docname="tau-logo.svg"
   viewBox="0 0 485.18109 358.37826">
  <defs
     id="defs4">
    <clipPath
       id="clipPath3133"
       clipPathUnits="userSpaceOnUse">
      <path
         id="path3135"
         d="M 0,595.276 H 841.89 V 0 H 0 Z"
         inkscape:connector-curvature="0" />
    </clipPath>
    <clipPath
       id="clipPath3097"
       clipPathUnits="userSpaceOnUse">
      <path
         id="path3099"
         d="M 0,595.276 H 841.89 V 0 H 0 Z"
         inkscape:connector-curvature="0" />
    </clipPath>
    <clipPath
       id="clipPath3085"
       clipPathUnits="userSpaceOnUse">
      <path
         id="path3087"
         d="M 0,595.276 H 841.89 V 0 H 0 Z"
         inkscape:connector-curvature="0" />
    </clipPath>
    <clipPath
       id="clipPath3073"
       clipPathUnits="userSpaceOnUse">
      <path
         id="path3075"
         d="M 0,595.276 H 841.89 V 0 H 0 Z"
         inkscape:connector-curvature="0" />
    </clipPath>
    <clipPath
       id="clipPath3053"
       clipPathUnits="userSpaceOnUse">
      <path
         id="path3055"
         d="M 0,595.276 H 841.89 V 0 H 0 Z"
         inkscape:connector-curvature="0" />
    </clipPath>
  </defs>
  <sodipodi:namedview
     id="base"
     pagecolor="#ffffff"
     bordercolor="#666666"
     borderopacity="1.0"
     inkscape:pageopacity="0.0"
     inkscape:pageshadow="2"
     inkscape:zoom="3.6203867"
     inkscape:cx="174.4722"
     inkscape:cy="172.55546"
     inkscape:document-units="px"
     inkscape:current-layer="layer1"
     showgrid="false"
     fit-margin-top="0"
     fit-margin-left="0"
     fit-margin-right="0"
     fit-margin-bottom="0"
     inkscape:window-width="3840"
     inkscape:window-height="2056"
     inkscape:window-x="0"
     inkscape:window-y="50"
     inkscape:window-maximized="1" />
  <metadata
     id="metadata7">
    <rdf:RDF>
      <cc:Work
         rdf:about="">
        <dc:format>image/svg+xml</dc:format>
        <dc:type
           rdf:resource="http://purl.org/dc/dcmitype/StillImage" />
        <dc:title></dc:title>
      </cc:Work>
    </rdf:RDF>
  </metadata>
  <g
     inkscape:label="Layer 1"
     inkscape:groupmode="layer"
     id="layer1"
     transform="translate(-132.40946,-278.13025)">
    <g
       transform="matrix(1.25,0,0,-1.25,-165.65924,809.79062)"
       inkscape:label="TAU"
       id="g3047">
      <g
         id="g3049">
        <g
           clip-path="url(#clipPath3053)"
           id="g3051">
          <g
             transform="translate(606.2881,361.2241)"
             id="g3057">
            <path
               id="path3059"
               style="fill:#151922;fill-opacity:1;fill-rule:nonzero;stroke:none"
               d="m 0,0 c 10.047,23.574 -1.371,50.691 -25.453,60.452 -24.084,9.761 -51.85,-1.477 -61.895,-25.051 -10.047,-23.573 1.373,-50.692 25.457,-60.452 C -37.811,-34.812 -10.045,-23.573 0,0 m -6.646,2.694 c -8.532,-20.02 -32.024,-29.526 -52.471,-21.238 -20.451,8.289 -30.113,31.232 -21.584,51.252 8.531,20.017 32.023,29.525 52.474,21.237 C -7.777,45.657 1.885,22.711 -6.646,2.694"
               inkscape:connector-curvature="0" />
          </g>
          <g
             transform="translate(524.4756,329.8911)"
             id="g3061">
            <path
               id="path3063"
               style="fill:#151922;fill-opacity:1;fill-rule:nonzero;stroke:none"
               d="M 0,0 C 15.832,-20.239 45.586,-24.067 66.328,-8.533 87.07,7.002 91.063,36.106 75.229,56.345 59.396,76.585 29.641,80.413 8.9,64.877 -11.84,49.343 -15.832,20.239 0,0 M 5.725,4.287 C -7.723,21.475 -4.34,46.099 13.27,59.29 30.885,72.482 56.059,69.246 69.504,52.058 82.949,34.872 79.57,10.246 61.957,-2.946 44.346,-16.138 19.168,-12.898 5.725,4.287"
               inkscape:connector-curvature="0" />
          </g>
          <g
             transform="translate(537.8174,414.7646)"
             id="g3065">
            <path
               id="path3067"
               style="fill:#151922;fill-opacity:1;fill-rule:nonzero;stroke:none"
               d="m 0,0 c -25.877,-3.333 -44.215,-26.625 -40.873,-51.919 3.34,-25.295 27.113,-43.163 52.99,-39.83 25.879,3.333 44.215,26.626 40.875,51.922 C 49.652,-14.533 25.879,3.334 0,0 m 0.924,-6.982 c 21.976,2.831 42.088,-12.287 44.924,-33.766 2.838,-21.48 -12.674,-41.187 -34.653,-44.018 -21.974,-2.831 -42.088,12.287 -44.924,33.767 -2.837,21.479 12.678,41.186 34.653,44.017"
               inkscape:connector-curvature="0" />
          </g>
        </g>
      </g>
      <g
         id="g3069">
        <g
           clip-path="url(#clipPath3073)"
           id="g3071">
          <g
             transform="translate(448.7197,340.6753)"
             id="g3077">
            <path
               id="path3079"
               style="fill:#151922;fill-opacity:1;fill-rule:nonzero;stroke:none"
               d="m 0,0 c -2.58,-0.56 -5.217,-0.841 -7.863,-0.841 -17.334,0 -32.255,12.026 -36.006,28.797 3.751,16.772 18.672,28.799 36.006,28.799 2.646,0 5.281,-0.282 7.861,-0.841 C 8.168,48.878 12.824,38.778 12.824,27.956 12.824,17.134 8.168,7.035 0,0 m 40.746,35.564 c 0,27.066 -22.021,49.086 -49.088,49.086 -10.633,0 -20.69,-3.325 -29.188,-9.633 -20.748,-6.143 -35.111,-25.282 -35.111,-47.061 0,-21.778 14.364,-40.917 35.113,-47.06 8.496,-6.307 18.553,-9.631 29.186,-9.631 27.067,0 49.088,22.018 49.088,49.083 0,2.516 -0.199,5.069 -0.598,7.608 0.399,2.539 0.598,5.092 0.598,7.608"
               inkscape:connector-curvature="0" />
          </g>
        </g>
      </g>
      <g
         id="g3081">
        <g
           clip-path="url(#clipPath3085)"
           id="g3083">
          <g
             transform="translate(368.5039,368.6353)"
             id="g3089">
            <path
               id="path3091"
               style="fill:#151922;fill-opacity:1;fill-rule:nonzero;stroke:none"
               d="m 0,0 c 0,-31.311 -25.383,-56.695 -56.694,-56.695 -31.31,0 -56.692,25.384 -56.692,56.695 0,31.311 25.382,56.693 56.692,56.693 C -25.383,56.693 0,31.311 0,0"
               inkscape:connector-curvature="0" />
          </g>
        </g>
      </g>
      <g
         id="g3093">
        <g
           clip-path="url(#clipPath3097)"
           id="g3095">
          <g
             transform="translate(311.811,360.5537)"
             id="g3101">
            <path
               id="path3103"
               style="fill:#ffffff;fill-opacity:1;fill-rule:nonzero;stroke:none"
               d="m 0,0 c -12.919,-0.005 -17.687,11.221 -17.687,11.221 0,0 5.249,-0.734 6.217,-0.886 0.512,-0.08 1.022,-0.698 1.089,-1.117 C -10.207,8.116 -7.515,1.119 0,1.119 c 7.515,0 9.898,6.456 10.313,8.066 0.144,0.558 0.536,0.953 1.216,1.074 1.211,0.219 6.158,0.962 6.158,0.962 C 17.687,11.221 12.919,0.005 0,0 m -2.268,17.875 c 0.086,2.478 2.258,10.543 2.258,10.543 h 0.02 c 0,0 2.172,-8.065 2.259,-10.543 C 2.355,15.397 1.346,12.13 1.279,11.95 1.188,11.704 1.181,11.581 1.073,11.581 c -0.115,0 -0.113,0.107 -0.12,0.216 -0.005,0.079 -0.963,10.082 -0.963,10.082 0,0 -0.938,-10.003 -0.943,-10.082 -0.007,-0.109 -0.005,-0.216 -0.12,-0.216 -0.108,0 -0.115,0.123 -0.206,0.369 -0.067,0.18 -1.076,3.447 -0.989,5.925 M 9.209,13.308 C 7.054,12.776 7.176,10.659 6.972,9.88 6.708,8.878 6.492,8.204 5.253,6.886 4.074,5.63 2.8,4.896 2.07,5.517 1.782,5.762 1.783,6.323 1.91,6.49 2.481,7.245 5.874,11.626 5.702,17.43 5.584,21.39 4.663,24.529 2.445,30.29 0.614,35.046 0,36.683 0,36.683 c 0,0 -0.614,-1.637 -2.444,-6.393 -2.219,-5.761 -3.14,-8.9 -3.258,-12.86 C -5.874,11.626 -2.481,7.245 -1.91,6.49 -1.783,6.323 -1.782,5.762 -2.07,5.517 -2.8,4.896 -4.074,5.63 -5.253,6.886 -6.492,8.204 -6.708,8.878 -6.972,9.88 c -0.204,0.779 -0.082,2.896 -2.236,3.428 -1.725,0.425 -13.851,2.38 -13.851,2.38 0,0 5.98,-14.74 6.418,-15.688 0.437,-0.948 1.954,-3.097 4.23,-3.136 2.664,-0.047 8.368,0.024 9.262,0 0.661,-0.017 1.079,-0.234 1.108,-0.666 0.034,-0.514 0,-1.607 0,-2.045 0,-0.437 -0.216,-0.759 -0.648,-0.759 h -9.868 v -3.97 h 2.391 l -0.848,-5.224 -3.169,-0.705 0.824,-3.77 5.614,1.162 1.548,8.537 h 3.266 c 0.17,0 0.875,-0.144 0.875,-0.728 v -7.803 H 0 2.056 v 8.531 c 1.239,0 1.944,0.104 2.196,-0.213 2.118,-2.634 7.321,-8.949 7.321,-8.949 l 3.007,2.383 -3.502,4.418 c 0,0 1.643,0.91 2.047,1.947 0.398,1.026 0.988,4.384 0.988,4.384 0,0 -1.748,0.003 -3.884,0.006 0,0 -0.358,-1.741 -0.446,-2.142 -0.23,-1.052 -1.253,-1.066 -1.253,-1.066 -1.815,2.045 -2.189,3.211 -3.399,3.211 -2.406,-0.002 -1.888,0 -2.442,-0.009 -0.295,-0.004 -0.647,0.322 -0.647,0.759 0,0.438 -0.035,1.531 0,2.045 0.028,0.432 0.446,0.649 1.107,0.666 0.894,0.024 6.598,-0.047 9.262,0 2.277,0.039 3.793,2.188 4.23,3.136 0.438,0.948 6.418,15.688 6.418,15.688 0,0 -12.126,-1.955 -13.85,-2.38"
               inkscape:connector-curvature="0" />
          </g>
        </g>
      </g>
      <g
         transform="translate(268.9995,290.5391)"
         id="g3105">
        <path
           id="path3107"
           style="fill:#231f20;fill-opacity:1;fill-rule:nonzero;stroke:none"
           d="M 0,0 H -6.258 V 4.886 H 11.939 V 0 H 5.605 V -21.247 H 0 Z"
           inkscape:connector-curvature="0" />
      </g>
      <g
         transform="translate(268.9995,290.5391)"
         id="g3109">
        <path
           id="path3111"
           style="fill:none;stroke:#151922;stroke-width:0.99199998;stroke-linecap:butt;stroke-linejoin:miter;stroke-miterlimit:10;stroke-dasharray:none;stroke-opacity:1"
           d="M 0,0 H -6.258 V 4.886 H 11.939 V 0 H 5.605 V -21.247 H 0 Z"
           inkscape:connector-curvature="0" />
      </g>
      <g
         transform="translate(298.6826,280.4971)"
         id="g3113">
        <path
           id="path3115"
           style="fill:#231f20;fill-opacity:1;fill-rule:nonzero;stroke:none"
           d="m 0,0 h -8.446 v -6.514 h 9.444 v -4.691 H -14.051 V 14.928 H 0.46 V 10.236 H -8.446 V 4.614 H 0 Z"
           inkscape:connector-curvature="0" />
      </g>
      <g
         transform="translate(298.6826,280.4971)"
         id="g3117">
        <path
           id="path3119"
           style="fill:none;stroke:#151922;stroke-width:0.99199998;stroke-linecap:butt;stroke-linejoin:miter;stroke-miterlimit:10;stroke-dasharray:none;stroke-opacity:1"
           d="m 0,0 h -8.446 v -6.514 h 9.444 v -4.691 H -14.051 V 14.928 H 0.46 V 10.236 H -8.446 V 4.614 H 0 Z"
           inkscape:connector-curvature="0" />
      </g>
      <g
         transform="translate(303.4805,295.4248)"
         id="g3121">
        <path
           id="path3123"
           style="fill:#231f20;fill-opacity:1;fill-rule:nonzero;stroke:none"
           d="m 0,0 h 5.605 v -21.364 h 9.176 v -4.769 H 0 Z"
           inkscape:connector-curvature="0" />
      </g>
      <g
         transform="translate(303.4805,295.4248)"
         id="g3125">
        <path
           id="path3127"
           style="fill:none;stroke:#151922;stroke-width:0.99199998;stroke-linecap:butt;stroke-linejoin:miter;stroke-miterlimit:10;stroke-dasharray:none;stroke-opacity:1"
           d="m 0,0 h 5.605 v -21.364 h 9.176 v -4.769 H 0 Z"
           inkscape:connector-curvature="0" />
      </g>
      <g
         id="g3129">
        <g
           clip-path="url(#clipPath3133)"
           id="g3131">
          <g
             transform="translate(339.9893,280.0322)"
             id="g3137">
            <path
               id="path3139"
               style="fill:#231f20;fill-opacity:1;fill-rule:nonzero;stroke:none"
               d="m 0,0 -1.382,5.544 c -0.384,1.551 -0.806,3.723 -1.152,5.312 H -2.61 C -2.956,9.267 -3.34,7.057 -3.724,5.506 L -5.106,0 Z m -5.835,-4.266 -1.613,-6.474 h -5.72 l 7.217,26.133 h 7.18 L 8.369,-10.74 H 2.496 l -1.728,6.474 z"
               inkscape:connector-curvature="0" />
          </g>
          <g
             transform="translate(339.9893,280.0322)"
             id="g3141">
            <path
               id="path3143"
               style="fill:none;stroke:#151922;stroke-width:0.99199998;stroke-linecap:butt;stroke-linejoin:miter;stroke-miterlimit:10;stroke-dasharray:none;stroke-opacity:1"
               d="m 0,0 -1.382,5.544 c -0.384,1.551 -0.806,3.723 -1.152,5.312 H -2.61 C -2.956,9.267 -3.34,7.057 -3.724,5.506 L -5.106,0 Z m -5.835,-4.266 -1.613,-6.474 h -5.72 l 7.217,26.133 h 7.18 L 8.369,-10.74 H 2.496 l -1.728,6.474 z"
               inkscape:connector-curvature="0" />
          </g>
          <g
             transform="translate(353.8936,269.292)"
             id="g3145">
            <path
               id="path3147"
               style="fill:#231f20;fill-opacity:1;fill-rule:nonzero;stroke:none"
               d="m 0,0 -7.563,26.133 h 6.142 L 1.343,15.005 C 2.111,11.98 2.802,8.956 3.378,5.738 H 3.455 C 3.992,8.879 4.722,11.98 5.49,14.966 L 8.292,26.133 H 14.32 L 6.449,0 Z"
               inkscape:connector-curvature="0" />
          </g>
          <g
             transform="translate(353.8936,269.292)"
             id="g3149">
            <path
               id="path3151"
               style="fill:none;stroke:#151922;stroke-width:0.99199998;stroke-linecap:butt;stroke-linejoin:miter;stroke-miterlimit:10;stroke-dasharray:none;stroke-opacity:1"
               d="m 0,0 -7.563,26.133 h 6.142 L 1.343,15.005 C 2.111,11.98 2.802,8.956 3.378,5.738 H 3.455 C 3.992,8.879 4.722,11.98 5.49,14.966 L 8.292,26.133 H 14.32 L 6.449,0 Z"
               inkscape:connector-curvature="0" />
          </g>
          <path
             id="path3153"
             style="fill:#231f20;fill-opacity:1;fill-rule:nonzero;stroke:#151922;stroke-width:0.99199998;stroke-linecap:butt;stroke-linejoin:miter;stroke-miterlimit:10;stroke-dasharray:none;stroke-opacity:1"
             d="m 376.39,269.292 h -5.605 v 26.133 h 5.605 z"
             inkscape:connector-curvature="0" />
          <g
             transform="translate(386.6396,269.292)"
             id="g3155">
            <path
               id="path3157"
               style="fill:#231f20;fill-opacity:1;fill-rule:nonzero;stroke:none"
               d="m 0,0 -7.563,26.133 h 6.142 L 1.343,15.005 C 2.111,11.98 2.802,8.956 3.378,5.738 H 3.455 C 3.992,8.879 4.722,11.98 5.49,14.966 L 8.292,26.133 H 14.32 L 6.449,0 Z"
               inkscape:connector-curvature="0" />
          </g>
          <g
             transform="translate(386.6396,269.292)"
             id="g3159">
            <path
               id="path3161"
               style="fill:none;stroke:#151922;stroke-width:0.99199998;stroke-linecap:butt;stroke-linejoin:miter;stroke-miterlimit:10;stroke-dasharray:none;stroke-opacity:1"
               d="m 0,0 -7.563,26.133 h 6.142 L 1.343,15.005 C 2.111,11.98 2.802,8.956 3.378,5.738 H 3.455 C 3.992,8.879 4.722,11.98 5.49,14.966 L 8.292,26.133 H 14.32 L 6.449,0 Z"
               inkscape:connector-curvature="0" />
          </g>
          <g
             transform="translate(270.1895,258.5742)"
             id="g3163">
            <path
               id="path3165"
               style="fill:#231f20;fill-opacity:1;fill-rule:nonzero;stroke:none"
               d="m 0,0 v -15.625 c 0,-4.305 1.536,-6.281 4.031,-6.281 2.573,0 4.07,1.86 4.07,6.281 V 0 h 5.605 v -15.121 c 0,-7.639 -3.571,-11.4 -9.829,-11.4 -6.181,0 -9.482,3.684 -9.482,11.438 V 0 Z"
               inkscape:connector-curvature="0" />
          </g>
          <g
             transform="translate(270.1895,258.5742)"
             id="g3167">
            <path
               id="path3169"
               style="fill:none;stroke:#151922;stroke-width:0.99199998;stroke-linecap:butt;stroke-linejoin:miter;stroke-miterlimit:10;stroke-dasharray:none;stroke-opacity:1"
               d="m 0,0 v -15.625 c 0,-4.305 1.536,-6.281 4.031,-6.281 2.573,0 4.07,1.86 4.07,6.281 V 0 h 5.605 v -15.121 c 0,-7.639 -3.571,-11.4 -9.829,-11.4 -6.181,0 -9.482,3.684 -9.482,11.438 V 0 Z"
               inkscape:connector-curvature="0" />
          </g>
          <g
             transform="translate(287.918,232.4414)"
             id="g3171">
            <path
               id="path3173"
               style="fill:#231f20;fill-opacity:1;fill-rule:nonzero;stroke:none"
               d="m 0,0 v 26.133 h 6.143 l 4.952,-9.771 c 1.343,-2.52 2.764,-5.816 3.801,-8.569 h 0.115 c -0.307,3.257 -0.499,7.057 -0.499,11.283 v 7.057 H 19.58 V 0 H 13.936 L 8.868,10.042 C 7.486,12.679 5.951,16.013 4.914,18.844 H 4.799 C 4.953,15.625 5.067,11.825 5.067,7.25 V 0 Z"
               inkscape:connector-curvature="0" />
          </g>
          <g
             transform="translate(287.918,232.4414)"
             id="g3175">
            <path
               id="path3177"
               style="fill:none;stroke:#151922;stroke-width:0.99199998;stroke-linecap:butt;stroke-linejoin:miter;stroke-miterlimit:10;stroke-dasharray:none;stroke-opacity:1"
               d="m 0,0 v 26.133 h 6.143 l 4.952,-9.771 c 1.343,-2.52 2.764,-5.816 3.801,-8.569 h 0.115 c -0.307,3.257 -0.499,7.057 -0.499,11.283 v 7.057 H 19.58 V 0 H 13.936 L 8.868,10.042 C 7.486,12.679 5.951,16.013 4.914,18.844 H 4.799 C 4.953,15.625 5.067,11.825 5.067,7.25 V 0 Z"
               inkscape:connector-curvature="0" />
          </g>
          <path
             id="path3179"
             style="fill:#231f20;fill-opacity:1;fill-rule:nonzero;stroke:#151922;stroke-width:0.99199998;stroke-linecap:butt;stroke-linejoin:miter;stroke-miterlimit:10;stroke-dasharray:none;stroke-opacity:1"
             d="m 317.201,232.441 h -5.605 v 26.133 h 5.605 z"
             inkscape:connector-curvature="0" />
          <g
             transform="translate(328.2266,232.4414)"
             id="g3181">
            <path
               id="path3183"
               style="fill:#231f20;fill-opacity:1;fill-rule:nonzero;stroke:none"
               d="m 0,0 -7.563,26.133 h 6.142 L 1.343,15.005 C 2.111,11.98 2.802,8.956 3.378,5.738 H 3.455 C 3.992,8.879 4.722,11.98 5.49,14.966 L 8.292,26.133 H 14.32 L 6.449,0 Z"
               inkscape:connector-curvature="0" />
          </g>
          <g
             transform="translate(328.2266,232.4414)"
             id="g3185">
            <path
               id="path3187"
               style="fill:none;stroke:#151922;stroke-width:0.99199998;stroke-linecap:butt;stroke-linejoin:miter;stroke-miterlimit:10;stroke-dasharray:none;stroke-opacity:1"
               d="m 0,0 -7.563,26.133 h 6.142 L 1.343,15.005 C 2.111,11.98 2.802,8.956 3.378,5.738 H 3.455 C 3.992,8.879 4.722,11.98 5.49,14.966 L 8.292,26.133 H 14.32 L 6.449,0 Z"
               inkscape:connector-curvature="0" />
          </g>
          <g
             transform="translate(359.1689,243.6465)"
             id="g3189">
            <path
               id="path3191"
               style="fill:#231f20;fill-opacity:1;fill-rule:nonzero;stroke:none"
               d="m 0,0 h -8.446 v -6.514 h 9.444 v -4.691 H -14.051 V 14.928 H 0.46 V 10.236 H -8.446 V 4.614 H 0 Z"
               inkscape:connector-curvature="0" />
          </g>
          <g
             transform="translate(359.1689,243.6465)"
             id="g3193">
            <path
               id="path3195"
               style="fill:none;stroke:#151922;stroke-width:0.99199998;stroke-linecap:butt;stroke-linejoin:miter;stroke-miterlimit:10;stroke-dasharray:none;stroke-opacity:1"
               d="m 0,0 h -8.446 v -6.514 h 9.444 v -4.691 H -14.051 V 14.928 H 0.46 V 10.236 H -8.446 V 4.614 H 0 Z"
               inkscape:connector-curvature="0" />
          </g>
          <g
             transform="translate(369.5337,246.8652)"
             id="g3197">
            <path
               id="path3199"
               style="fill:#231f20;fill-opacity:1;fill-rule:nonzero;stroke:none"
               d="M 0,0 H 1.881 C 4.568,0 6.143,1.589 6.143,3.877 6.143,6.28 4.76,7.599 2.188,7.638 1.075,7.638 0.384,7.561 0,7.444 Z m -5.567,11.36 c 1.804,0.31 4.338,0.542 7.103,0.542 3.493,0 6.142,-0.542 7.908,-2.015 1.574,-1.319 2.304,-3.141 2.304,-5.506 0,-3.18 -2.035,-5.545 -4.415,-6.475 v -0.117 c 1.804,-0.736 2.764,-2.442 3.378,-4.963 0.729,-2.907 1.459,-6.242 1.958,-7.25 H 6.91 c -0.384,0.736 -0.998,2.986 -1.651,6.126 -0.614,3.257 -1.651,4.149 -3.801,4.149 H 0 v -10.275 h -5.567 z"
               inkscape:connector-curvature="0" />
          </g>
          <g
             transform="translate(369.5337,246.8652)"
             id="g3201">
            <path
               id="path3203"
               style="fill:none;stroke:#151922;stroke-width:0.99199998;stroke-linecap:butt;stroke-linejoin:miter;stroke-miterlimit:10;stroke-dasharray:none;stroke-opacity:1"
               d="M 0,0 H 1.881 C 4.568,0 6.143,1.589 6.143,3.877 6.143,6.28 4.76,7.599 2.188,7.638 1.075,7.638 0.384,7.561 0,7.444 Z m -5.567,11.36 c 1.804,0.31 4.338,0.542 7.103,0.542 3.493,0 6.142,-0.542 7.908,-2.015 1.574,-1.319 2.304,-3.141 2.304,-5.506 0,-3.18 -2.035,-5.545 -4.415,-6.475 v -0.117 c 1.804,-0.736 2.764,-2.442 3.378,-4.963 0.729,-2.907 1.459,-6.242 1.958,-7.25 H 6.91 c -0.384,0.736 -0.998,2.986 -1.651,6.126 -0.614,3.257 -1.651,4.149 -3.801,4.149 H 0 v -10.275 h -5.567 z"
               inkscape:connector-curvature="0" />
          </g>
          <g
             transform="translate(386.0103,238.2568)"
             id="g3205">
            <path
               id="path3207"
               style="fill:#231f20;fill-opacity:1;fill-rule:nonzero;stroke:none"
               d="m 0,0 c 1.42,-0.775 3.647,-1.473 5.835,-1.473 2.573,0 3.916,1.163 3.916,2.869 0,1.707 -1.228,2.637 -4.031,3.838 -4.069,1.745 -6.449,4.266 -6.449,7.639 0,4.381 3.417,7.793 9.291,7.793 2.572,0 4.529,-0.543 5.835,-1.202 l -1.152,-4.613 c -0.921,0.464 -2.572,1.124 -4.76,1.124 -2.419,0 -3.571,-1.241 -3.571,-2.598 0,-1.628 1.229,-2.365 4.415,-3.8 4.223,-1.822 6.066,-4.304 6.066,-7.716 0,-4.497 -3.34,-8.025 -9.828,-8.025 -2.688,0 -5.337,0.736 -6.604,1.435 z"
               inkscape:connector-curvature="0" />
          </g>
          <g
             transform="translate(386.0103,238.2568)"
             id="g3209">
            <path
               id="path3211"
               style="fill:none;stroke:#151922;stroke-width:0.99199998;stroke-linecap:butt;stroke-linejoin:miter;stroke-miterlimit:10;stroke-dasharray:none;stroke-opacity:1"
               d="m 0,0 c 1.42,-0.775 3.647,-1.473 5.835,-1.473 2.573,0 3.916,1.163 3.916,2.869 0,1.707 -1.228,2.637 -4.031,3.838 -4.069,1.745 -6.449,4.266 -6.449,7.639 0,4.381 3.417,7.793 9.291,7.793 2.572,0 4.529,-0.543 5.835,-1.202 l -1.152,-4.613 c -0.921,0.464 -2.572,1.124 -4.76,1.124 -2.419,0 -3.571,-1.241 -3.571,-2.598 0,-1.628 1.229,-2.365 4.415,-3.8 4.223,-1.822 6.066,-4.304 6.066,-7.716 0,-4.497 -3.34,-8.025 -9.828,-8.025 -2.688,0 -5.337,0.736 -6.604,1.435 z"
               inkscape:connector-curvature="0" />
          </g>
          <path
             id="path3213"
             style="fill:#231f20;fill-opacity:1;fill-rule:nonzero;stroke:#151922;stroke-width:0.99199998;stroke-linecap:butt;stroke-linejoin:miter;stroke-miterlimit:10;stroke-dasharray:none;stroke-opacity:1"
             d="m 410.657,232.441 h -5.605 v 26.133 h 5.605 z"
             inkscape:connector-curvature="0" />
          <g
             transform="translate(420.6455,253.6885)"
             id="g3215">
            <path
               id="path3217"
               style="fill:#231f20;fill-opacity:1;fill-rule:nonzero;stroke:none"
               d="M 0,0 H -6.258 V 4.886 H 11.939 V 0 H 5.604 V -21.247 H 0 Z"
               inkscape:connector-curvature="0" />
          </g>
          <g
             transform="translate(420.6455,253.6885)"
             id="g3219">
            <path
               id="path3221"
               style="fill:none;stroke:#151922;stroke-width:0.99199998;stroke-linecap:butt;stroke-linejoin:miter;stroke-miterlimit:10;stroke-dasharray:none;stroke-opacity:1"
               d="M 0,0 H -6.258 V 4.886 H 11.939 V 0 H 5.604 V -21.247 H 0 Z"
               inkscape:connector-curvature="0" />
          </g>
          <g
             transform="translate(442.8584,232.4414)"
             id="g3223">
            <path
               id="path3225"
               style="fill:#231f20;fill-opacity:1;fill-rule:nonzero;stroke:none"
               d="m 0,0 v 10.508 l -7.409,15.625 h 6.296 l 2.342,-6.281 c 0.729,-1.823 1.266,-3.373 1.804,-5.158 h 0.076 c 0.499,1.706 1.076,3.335 1.728,5.197 l 2.304,6.242 h 6.18 L 5.605,10.701 V 0 Z"
               inkscape:connector-curvature="0" />
          </g>
          <g
             transform="translate(442.8584,232.4414)"
             id="g3227">
            <path
               id="path3229"
               style="fill:none;stroke:#151922;stroke-width:0.99199998;stroke-linecap:butt;stroke-linejoin:miter;stroke-miterlimit:10;stroke-dasharray:none;stroke-opacity:1"
               d="m 0,0 v 10.508 l -7.409,15.625 h 6.296 l 2.342,-6.281 c 0.729,-1.823 1.266,-3.373 1.804,-5.158 h 0.076 c 0.499,1.706 1.076,3.335 1.728,5.197 l 2.304,6.242 h 6.18 L 5.605,10.701 V 0 Z"
               inkscape:connector-curvature="0" />
          </g>
          <g
             transform="translate(432.0215,269.001)"
             id="g3231">
            <path
               id="path3233"
               style="fill:#151922;fill-opacity:1;fill-rule:nonzero;stroke:none"
               d="m 0,0 c -0.592,0 -1.264,0.098 -2.014,0.291 v 2.845 c 0.979,-0.139 1.524,-0.208 1.631,-0.208 1.92,0 2.879,1.176 2.879,3.529 v 17.71 l -2.84,-0.271 v 2.928 c 3.746,0.444 7.022,0.665 9.828,0.665 2.391,0 4.405,-0.395 6.041,-1.183 1.719,-0.831 2.901,-2.174 3.545,-4.029 0.336,-0.968 0.504,-2.069 0.504,-3.3 V 0.291 h -3.363 v 18.727 c 0,3.696 -2.397,5.544 -7.19,5.544 -0.591,0 -1.652,-0.042 -3.181,-0.125 V 6.935 C 5.84,4.748 5.355,3.045 4.389,1.827 3.422,0.609 1.959,0 0,0"
               inkscape:connector-curvature="0" />
          </g>
          <g
             transform="translate(432.0215,269.001)"
             id="g3235">
            <path
               id="path3237"
               style="fill:none;stroke:#151922;stroke-width:0.85000002;stroke-linecap:butt;stroke-linejoin:miter;stroke-miterlimit:10;stroke-dasharray:none;stroke-opacity:1"
               d="m 0,0 c -0.592,0 -1.264,0.098 -2.014,0.291 v 2.845 c 0.979,-0.139 1.524,-0.208 1.631,-0.208 1.92,0 2.879,1.176 2.879,3.529 v 17.71 l -2.84,-0.271 v 2.928 c 3.746,0.444 7.022,0.665 9.828,0.665 2.391,0 4.405,-0.395 6.041,-1.183 1.719,-0.831 2.901,-2.174 3.545,-4.029 0.336,-0.968 0.504,-2.069 0.504,-3.3 V 0.291 h -3.363 v 18.727 c 0,3.696 -2.397,5.544 -7.19,5.544 -0.591,0 -1.652,-0.042 -3.181,-0.125 V 6.935 C 5.84,4.748 5.355,3.045 4.389,1.827 3.422,0.609 1.959,0 0,0 Z"
               inkscape:connector-curvature="0" />
          </g>
          <g
             transform="translate(470.9883,291.3613)"
             id="g3239">
            <path
               id="path3241"
               style="fill:#151922;fill-opacity:1;fill-rule:nonzero;stroke:none"
               d="m 0,0 c -0.457,0.665 -1.064,1.204 -1.822,1.619 -0.76,0.416 -1.67,0.623 -2.731,0.623 -1.06,0 -1.992,-0.069 -2.799,-0.207 v 2.823 c 0.793,0.18 1.75,0.271 2.872,0.271 1.119,0 2.167,-0.166 3.14,-0.499 C -0.367,4.298 0.529,3.769 1.35,3.042 2.168,2.315 2.865,1.419 3.443,0.354 c 1.235,-2.243 1.854,-5.253 1.854,-9.032 0,-1.883 -0.176,-3.595 -0.526,-5.138 -0.347,-1.544 -0.828,-2.845 -1.439,-3.904 -0.611,-1.058 -1.346,-1.951 -2.205,-2.678 -0.859,-0.727 -1.785,-1.256 -2.779,-1.588 -0.994,-0.332 -2.053,-0.498 -3.182,-0.498 -1.127,0 -2.187,0.166 -3.182,0.498 -0.994,0.332 -1.92,0.861 -2.779,1.588 -0.859,0.727 -1.594,1.62 -2.205,2.678 -0.611,1.059 -1.092,2.36 -1.439,3.904 -0.35,1.543 -0.524,3.255 -0.524,5.138 V 4.713 H -11.5 V -8.678 c 0,-3.004 0.449,-5.502 1.35,-7.495 0.482,-1.08 1.173,-1.921 2.074,-2.522 0.898,-0.603 1.92,-0.904 3.06,-0.904 1.141,0 2.106,0.204 2.891,0.613 0.785,0.408 1.422,0.951 1.912,1.63 0.49,0.677 0.891,1.502 1.199,2.47 0.551,1.702 0.826,3.772 0.826,6.208 0,1.204 -0.046,2.294 -0.14,3.27 C 1.576,-4.433 1.389,-3.453 1.107,-2.471 0.824,-1.488 0.455,-0.664 0,0"
               inkscape:connector-curvature="0" />
          </g>
          <g
             transform="translate(470.9883,291.3613)"
             id="g3243">
            <path
               id="path3245"
               style="fill:none;stroke:#151922;stroke-width:0.85000002;stroke-linecap:butt;stroke-linejoin:miter;stroke-miterlimit:10;stroke-dasharray:none;stroke-opacity:1"
               d="m 0,0 c -0.457,0.665 -1.064,1.204 -1.822,1.619 -0.76,0.416 -1.67,0.623 -2.731,0.623 -1.06,0 -1.992,-0.069 -2.799,-0.207 v 2.823 c 0.793,0.18 1.75,0.271 2.872,0.271 1.119,0 2.167,-0.166 3.14,-0.499 C -0.367,4.298 0.529,3.769 1.35,3.042 2.168,2.315 2.865,1.419 3.443,0.354 c 1.235,-2.243 1.854,-5.253 1.854,-9.032 0,-1.883 -0.176,-3.595 -0.526,-5.138 -0.347,-1.544 -0.828,-2.845 -1.439,-3.904 -0.611,-1.058 -1.346,-1.951 -2.205,-2.678 -0.859,-0.727 -1.785,-1.256 -2.779,-1.588 -0.994,-0.332 -2.053,-0.498 -3.182,-0.498 -1.127,0 -2.187,0.166 -3.182,0.498 -0.994,0.332 -1.92,0.861 -2.779,1.588 -0.859,0.727 -1.594,1.62 -2.205,2.678 -0.611,1.059 -1.092,2.36 -1.439,3.904 -0.35,1.543 -0.524,3.255 -0.524,5.138 V 4.713 H -11.5 V -8.678 c 0,-3.004 0.449,-5.502 1.35,-7.495 0.482,-1.08 1.173,-1.921 2.074,-2.522 0.898,-0.603 1.92,-0.904 3.06,-0.904 1.141,0 2.106,0.204 2.891,0.613 0.785,0.408 1.422,0.951 1.912,1.63 0.49,0.677 0.891,1.502 1.199,2.47 0.551,1.702 0.826,3.772 0.826,6.208 0,1.204 -0.046,2.294 -0.14,3.27 C 1.576,-4.433 1.389,-3.453 1.107,-2.471 0.824,-1.488 0.455,-0.664 0,0 Z"
               inkscape:connector-curvature="0" />
          </g>
          <g
             transform="translate(481.0254,278.3437)"
             id="g3247">
            <path
               id="path3249"
               style="fill:#151922;fill-opacity:1;fill-rule:nonzero;stroke:none"
               d="M 0,0 V 17.73 H 3.344 V 3.529 L 0.686,0 Z"
               inkscape:connector-curvature="0" />
          </g>
          <g
             transform="translate(481.0254,278.3437)"
             id="g3251">
            <path
               id="path3253"
               style="fill:none;stroke:#151922;stroke-width:0.85000002;stroke-linecap:butt;stroke-linejoin:miter;stroke-miterlimit:10;stroke-dasharray:none;stroke-opacity:1"
               d="M 0,0 V 17.73 H 3.344 V 3.529 L 0.686,0 Z"
               inkscape:connector-curvature="0" />
          </g>
          <g
             transform="translate(493.207,288.7041)"
             id="g3255">
            <path
               id="path3257"
               style="fill:#151922;fill-opacity:1;fill-rule:nonzero;stroke:none"
               d="m 0,0 c -0.518,-2.035 -0.775,-3.917 -0.775,-5.647 0,-1.731 0.103,-3.207 0.312,-4.433 0.207,-1.225 0.553,-2.374 1.037,-3.446 0.483,-1.073 1.174,-1.911 2.074,-2.512 0.899,-0.603 1.981,-0.903 3.243,-0.903 1.261,0 2.341,0.3 3.242,0.903 0.898,0.601 1.59,1.442 2.074,2.522 0.898,1.994 1.35,4.492 1.35,7.495 0,3.986 -0.645,6.865 -1.934,8.637 C 10.139,3.28 9.494,3.816 8.689,4.225 7.885,4.633 6.951,4.837 5.891,4.837 L 2.285,4.796 C 1.279,3.633 0.516,2.034 0,0 m 5.891,7.786 c 3.113,0 5.582,-1.142 7.4,-3.426 1.818,-2.284 2.729,-5.744 2.729,-10.381 0,-1.882 -0.174,-3.595 -0.524,-5.138 -0.35,-1.544 -0.828,-2.845 -1.439,-3.904 -0.612,-1.058 -1.346,-1.951 -2.205,-2.678 -0.86,-0.727 -1.786,-1.256 -2.78,-1.588 -0.994,-0.332 -2.054,-0.498 -3.181,-0.498 -1.129,0 -2.19,0.166 -3.182,0.498 -0.994,0.332 -1.92,0.861 -2.779,1.588 -0.86,0.727 -1.596,1.62 -2.205,2.678 -0.612,1.059 -1.092,2.36 -1.442,3.904 -0.347,1.543 -0.523,3.256 -0.523,5.138 0,2.588 0.285,4.779 0.857,6.571 0.57,1.793 1.278,3.166 2.123,4.121 L -3.836,4.505 v 2.928 c 2.832,0.235 6.074,0.353 9.727,0.353"
               inkscape:connector-curvature="0" />
          </g>
          <g
             transform="translate(493.207,288.7041)"
             id="g3259">
            <path
               id="path3261"
               style="fill:none;stroke:#151922;stroke-width:0.85000002;stroke-linecap:butt;stroke-linejoin:miter;stroke-miterlimit:10;stroke-dasharray:none;stroke-opacity:1"
               d="m 0,0 c -0.518,-2.035 -0.775,-3.917 -0.775,-5.647 0,-1.731 0.103,-3.207 0.312,-4.433 0.207,-1.225 0.553,-2.374 1.037,-3.446 0.483,-1.073 1.174,-1.911 2.074,-2.512 0.899,-0.603 1.981,-0.903 3.243,-0.903 1.261,0 2.341,0.3 3.242,0.903 0.898,0.601 1.59,1.442 2.074,2.522 0.898,1.994 1.35,4.492 1.35,7.495 0,3.986 -0.645,6.865 -1.934,8.637 C 10.139,3.28 9.494,3.816 8.689,4.225 7.885,4.633 6.951,4.837 5.891,4.837 L 2.285,4.796 C 1.279,3.633 0.516,2.034 0,0 Z m 5.891,7.786 c 3.113,0 5.582,-1.142 7.4,-3.426 1.818,-2.284 2.729,-5.744 2.729,-10.381 0,-1.882 -0.174,-3.595 -0.524,-5.138 -0.35,-1.544 -0.828,-2.845 -1.439,-3.904 -0.612,-1.058 -1.346,-1.951 -2.205,-2.678 -0.86,-0.727 -1.786,-1.256 -2.78,-1.588 -0.994,-0.332 -2.054,-0.498 -3.181,-0.498 -1.129,0 -2.19,0.166 -3.182,0.498 -0.994,0.332 -1.92,0.861 -2.779,1.588 -0.86,0.727 -1.596,1.62 -2.205,2.678 -0.612,1.059 -1.092,2.36 -1.442,3.904 -0.347,1.543 -0.523,3.256 -0.523,5.138 0,2.588 0.285,4.779 0.857,6.571 0.57,1.793 1.278,3.166 2.123,4.121 L -3.836,4.505 v 2.928 c 2.832,0.235 6.074,0.353 9.727,0.353 z"
               inkscape:connector-curvature="0" />
          </g>
          <g
             transform="translate(511.0234,296.3437)"
             id="g3263">
            <path
               id="path3265"
               style="fill:#151922;fill-opacity:1;fill-rule:nonzero;stroke:none"
               d="m 0,0 c 1.879,0.098 3.564,0.146 5.055,0.146 1.49,0 2.728,-0.093 3.715,-0.281 0.986,-0.186 1.91,-0.487 2.769,-0.902 0.859,-0.416 1.584,-0.948 2.174,-1.599 1.25,-1.398 1.873,-3.308 1.873,-5.73 v -18.686 h -3.342 v 18.727 c 0,3.696 -2.404,5.544 -7.211,5.544 C 3.584,-2.781 1.906,-2.83 0,-2.927 Z"
               inkscape:connector-curvature="0" />
          </g>
          <g
             transform="translate(511.0234,296.3437)"
             id="g3267">
            <path
               id="path3269"
               style="fill:none;stroke:#151922;stroke-width:0.85000002;stroke-linecap:butt;stroke-linejoin:miter;stroke-miterlimit:10;stroke-dasharray:none;stroke-opacity:1"
               d="m 0,0 c 1.879,0.098 3.564,0.146 5.055,0.146 1.49,0 2.728,-0.093 3.715,-0.281 0.986,-0.186 1.91,-0.487 2.769,-0.902 0.859,-0.416 1.584,-0.948 2.174,-1.599 1.25,-1.398 1.873,-3.308 1.873,-5.73 v -18.686 h -3.342 v 18.727 c 0,3.696 -2.404,5.544 -7.211,5.544 C 3.584,-2.781 1.906,-2.83 0,-2.927 Z"
               inkscape:connector-curvature="0" />
          </g>
          <g
             transform="translate(530.8223,296.1777)"
             id="g3271">
            <path
               id="path3273"
               style="fill:#151922;fill-opacity:1;fill-rule:nonzero;stroke:none"
               d="m 0,0 c 2.148,0.208 4.666,0.312 7.553,0.312 2.885,0 5.019,-0.647 6.404,-1.941 1.381,-1.295 2.074,-3.485 2.074,-6.571 v -16.007 h 2.959 v -2.679 H 0 v 2.679 h 12.688 v 16.048 c 0,2.132 -0.467,3.589 -1.401,4.371 -0.933,0.781 -2.373,1.173 -4.318,1.173 -2.082,0 -4.063,-0.076 -5.942,-0.229 L 0,-2.927 Z"
               inkscape:connector-curvature="0" />
          </g>
          <g
             transform="translate(530.8223,296.1777)"
             id="g3275">
            <path
               id="path3277"
               style="fill:none;stroke:#151922;stroke-width:0.85000002;stroke-linecap:butt;stroke-linejoin:miter;stroke-miterlimit:10;stroke-dasharray:none;stroke-opacity:1"
               d="m 0,0 c 2.148,0.208 4.666,0.312 7.553,0.312 2.885,0 5.019,-0.647 6.404,-1.941 1.381,-1.295 2.074,-3.485 2.074,-6.571 v -16.007 h 2.959 v -2.679 H 0 v 2.679 h 12.688 v 16.048 c 0,2.132 -0.467,3.589 -1.401,4.371 -0.933,0.781 -2.373,1.173 -4.318,1.173 -2.082,0 -4.063,-0.076 -5.942,-0.229 L 0,-2.927 Z"
               inkscape:connector-curvature="0" />
          </g>
          <g
             transform="translate(552.8164,278.3437)"
             id="g3279">
            <path
               id="path3281"
               style="fill:#151922;fill-opacity:1;fill-rule:nonzero;stroke:none"
               d="M 0,0 V 17.73 H 3.344 V 3.529 L 0.686,0 Z"
               inkscape:connector-curvature="0" />
          </g>
          <g
             transform="translate(552.8164,278.3437)"
             id="g3283">
            <path
               id="path3285"
               style="fill:none;stroke:#151922;stroke-width:0.85000002;stroke-linecap:butt;stroke-linejoin:miter;stroke-miterlimit:10;stroke-dasharray:none;stroke-opacity:1"
               d="M 0,0 V 17.73 H 3.344 V 3.529 L 0.686,0 Z"
               inkscape:connector-curvature="0" />
          </g>
          <g
             transform="translate(563.5234,293.708)"
             id="g3287">
            <path
               id="path3289"
               style="fill:#151922;fill-opacity:1;fill-rule:nonzero;stroke:none"
               d="m 0,0 c -0.725,0 -1.543,-0.125 -2.455,-0.374 v 2.72 c 1.072,0.29 2.275,0.436 3.603,0.436 4.19,0 6.284,-2.375 6.284,-7.122 v -13.536 c 0,-1.121 -0.063,-2.228 -0.192,-3.322 -0.127,-1.094 -0.258,-1.904 -0.392,-2.429 L 6.646,-24.416 H -5.316 v 2.679 h 8.982 c 0.27,1.038 0.402,2.325 0.402,3.861 V -4.63 c 0,1.66 -0.349,2.864 -1.047,3.612 C 2.377,-0.34 1.371,0 0,0"
               inkscape:connector-curvature="0" />
          </g>
          <g
             transform="translate(563.5234,293.708)"
             id="g3291">
            <path
               id="path3293"
               style="fill:none;stroke:#151922;stroke-width:0.85000002;stroke-linecap:butt;stroke-linejoin:miter;stroke-miterlimit:10;stroke-dasharray:none;stroke-opacity:1"
               d="m 0,0 c -0.725,0 -1.543,-0.125 -2.455,-0.374 v 2.72 c 1.072,0.29 2.275,0.436 3.603,0.436 4.19,0 6.284,-2.375 6.284,-7.122 v -13.536 c 0,-1.121 -0.063,-2.228 -0.192,-3.322 -0.127,-1.094 -0.258,-1.904 -0.392,-2.429 L 6.646,-24.416 H -5.316 v 2.679 h 8.982 c 0.27,1.038 0.402,2.325 0.402,3.861 V -4.63 c 0,1.66 -0.349,2.864 -1.047,3.612 C 2.377,-0.34 1.371,0 0,0 Z"
               inkscape:connector-curvature="0" />
          </g>
          <path
             id="path3295"
             style="fill:#151922;fill-opacity:1;fill-rule:nonzero;stroke:#151922;stroke-width:0.85000002;stroke-linecap:butt;stroke-linejoin:miter;stroke-miterlimit:10;stroke-dasharray:none;stroke-opacity:1"
             d="m 579.699,269.292 h -3.342 v 26.782 h 3.342 z"
             inkscape:connector-curvature="0" />
          <g
             transform="translate(603.0039,296.0742)"
             id="g3297">
            <path
               id="path3299"
               style="fill:#151922;fill-opacity:1;fill-rule:nonzero;stroke:none"
               d="m 0,0 v -8.699 c 0,-1.135 -0.049,-2.114 -0.143,-2.938 -0.093,-0.823 -0.287,-1.692 -0.584,-2.605 -0.603,-1.855 -1.884,-3.177 -3.845,-3.966 l 5.013,-8.574 h -3.765 l -6.344,11.19 -3.061,4.734 c -0.537,-0.207 -0.925,-0.415 -1.167,-0.622 -1.276,-1.067 -1.915,-2.852 -1.915,-5.358 v -9.944 h -3.341 v 8.699 c 0,3.031 0.435,5.28 1.308,6.747 0.35,0.596 0.836,1.152 1.461,1.672 0.623,0.518 1.371,0.931 2.244,1.235 L -19.133,0 h 3.787 l 5.961,-10.359 3.364,-5.378 c 0.683,0.415 1.191,0.844 1.519,1.287 0.328,0.443 0.604,1.045 0.826,1.806 0.221,0.761 0.332,1.662 0.332,2.7 V 0 Z"
               inkscape:connector-curvature="0" />
          </g>
          <g
             transform="translate(603.0039,296.0742)"
             id="g3301">
            <path
               id="path3303"
               style="fill:none;stroke:#151922;stroke-width:0.85000002;stroke-linecap:butt;stroke-linejoin:miter;stroke-miterlimit:10;stroke-dasharray:none;stroke-opacity:1"
               d="m 0,0 v -8.699 c 0,-1.135 -0.049,-2.114 -0.143,-2.938 -0.093,-0.823 -0.287,-1.692 -0.584,-2.605 -0.603,-1.855 -1.884,-3.177 -3.845,-3.966 l 5.013,-8.574 h -3.765 l -6.344,11.19 -3.061,4.734 c -0.537,-0.207 -0.925,-0.415 -1.167,-0.622 -1.276,-1.067 -1.915,-2.852 -1.915,-5.358 v -9.944 h -3.341 v 8.699 c 0,3.031 0.435,5.28 1.308,6.747 0.35,0.596 0.836,1.152 1.461,1.672 0.623,0.518 1.371,0.931 2.244,1.235 L -19.133,0 h 3.787 l 5.961,-10.359 3.364,-5.378 c 0.683,0.415 1.191,0.844 1.519,1.287 0.328,0.443 0.604,1.045 0.826,1.806 0.221,0.761 0.332,1.662 0.332,2.7 V 0 Z"
               inkscape:connector-curvature="0" />
          </g>
          <g
             transform="translate(481.6973,259.3271)"
             id="g3305">
            <path
               id="path3307"
               style="fill:#151922;fill-opacity:1;fill-rule:nonzero;stroke:none"
               d="m 0,0 c 2.148,0.208 4.666,0.312 7.553,0.312 2.885,0 5.019,-0.647 6.404,-1.941 1.381,-1.295 2.074,-3.485 2.074,-6.571 v -16.007 h 2.959 v -2.679 H 0 v 2.679 h 12.688 v 16.048 c 0,2.132 -0.467,3.589 -1.401,4.371 -0.933,0.781 -2.373,1.173 -4.318,1.173 -2.082,0 -4.063,-0.076 -5.942,-0.229 L 0,-2.927 Z"
               inkscape:connector-curvature="0" />
          </g>
          <g
             transform="translate(481.6973,259.3271)"
             id="g3309">
            <path
               id="path3311"
               style="fill:none;stroke:#151922;stroke-width:0.85000002;stroke-linecap:butt;stroke-linejoin:miter;stroke-miterlimit:10;stroke-dasharray:none;stroke-opacity:1"
               d="m 0,0 c 2.148,0.208 4.666,0.312 7.553,0.312 2.885,0 5.019,-0.647 6.404,-1.941 1.381,-1.295 2.074,-3.485 2.074,-6.571 v -16.007 h 2.959 v -2.679 H 0 v 2.679 h 12.688 v 16.048 c 0,2.132 -0.467,3.589 -1.401,4.371 -0.933,0.781 -2.373,1.173 -4.318,1.173 -2.082,0 -4.063,-0.076 -5.942,-0.229 L 0,-2.927 Z"
               inkscape:connector-curvature="0" />
          </g>
          <g
             transform="translate(502.8418,241.4932)"
             id="g3313">
            <path
               id="path3315"
               style="fill:#151922;fill-opacity:1;fill-rule:nonzero;stroke:none"
               d="M 0,0 V 17.73 H 3.344 V 3.529 L 0.686,0 Z"
               inkscape:connector-curvature="0" />
          </g>
          <g
             transform="translate(502.8418,241.4932)"
             id="g3317">
            <path
               id="path3319"
               style="fill:none;stroke:#151922;stroke-width:0.85000002;stroke-linecap:butt;stroke-linejoin:miter;stroke-miterlimit:10;stroke-dasharray:none;stroke-opacity:1"
               d="M 0,0 V 17.73 H 3.344 V 3.529 L 0.686,0 Z"
               inkscape:connector-curvature="0" />
          </g>
          <g
             transform="translate(510.9844,259.3271)"
             id="g3321">
            <path
               id="path3323"
               style="fill:#151922;fill-opacity:1;fill-rule:nonzero;stroke:none"
               d="m 0,0 c 2.148,0.208 4.666,0.312 7.553,0.312 2.886,0 5.021,-0.647 6.404,-1.941 1.383,-1.295 2.074,-3.485 2.074,-6.571 v -16.007 h 2.961 v -2.679 H 0 v 2.679 h 12.688 v 16.048 c 0,2.132 -0.467,3.589 -1.399,4.371 -0.934,0.781 -2.373,1.173 -4.32,1.173 -2.08,0 -4.061,-0.076 -5.942,-0.229 L 0,-2.927 Z"
               inkscape:connector-curvature="0" />
          </g>
          <g
             transform="translate(510.9844,259.3271)"
             id="g3325">
            <path
               id="path3327"
               style="fill:none;stroke:#151922;stroke-width:0.85000002;stroke-linecap:butt;stroke-linejoin:miter;stroke-miterlimit:10;stroke-dasharray:none;stroke-opacity:1"
               d="m 0,0 c 2.148,0.208 4.666,0.312 7.553,0.312 2.886,0 5.021,-0.647 6.404,-1.941 1.383,-1.295 2.074,-3.485 2.074,-6.571 v -16.007 h 2.961 v -2.679 H 0 v 2.679 h 12.688 v 16.048 c 0,2.132 -0.467,3.589 -1.399,4.371 -0.934,0.781 -2.373,1.173 -4.32,1.173 -2.08,0 -4.061,-0.076 -5.942,-0.229 L 0,-2.927 Z"
               inkscape:connector-curvature="0" />
          </g>
          <g
             transform="translate(552.7246,259.2236)"
             id="g3329">
            <path
               id="path3331"
               style="fill:#151922;fill-opacity:1;fill-rule:nonzero;stroke:none"
               d="m 0,0 v -8.699 c 0,-1.135 -0.047,-2.114 -0.141,-2.938 -0.093,-0.823 -0.289,-1.692 -0.584,-2.605 -0.603,-1.855 -1.886,-3.177 -3.845,-3.966 l 5.013,-8.574 h -3.765 l -6.344,11.19 -3.061,4.734 c -0.537,-0.207 -0.927,-0.415 -1.168,-0.622 -1.277,-1.067 -1.914,-2.852 -1.914,-5.358 v -9.944 h -3.343 v 8.699 c 0,3.031 0.437,5.28 1.31,6.747 0.348,0.596 0.834,1.152 1.459,1.672 0.625,0.518 1.373,0.931 2.246,1.235 L -19.131,0 h 3.785 l 5.961,-10.359 3.364,-5.378 c 0.685,0.415 1.191,0.844 1.521,1.287 0.328,0.443 0.604,1.045 0.824,1.806 0.223,0.761 0.334,1.662 0.334,2.7 V 0 Z"
               inkscape:connector-curvature="0" />
          </g>
          <g
             transform="translate(552.7246,259.2236)"
             id="g3333">
            <path
               id="path3335"
               style="fill:none;stroke:#151922;stroke-width:0.85000002;stroke-linecap:butt;stroke-linejoin:miter;stroke-miterlimit:10;stroke-dasharray:none;stroke-opacity:1"
               d="m 0,0 v -8.699 c 0,-1.135 -0.047,-2.114 -0.141,-2.938 -0.093,-0.823 -0.289,-1.692 -0.584,-2.605 -0.603,-1.855 -1.886,-3.177 -3.845,-3.966 l 5.013,-8.574 h -3.765 l -6.344,11.19 -3.061,4.734 c -0.537,-0.207 -0.927,-0.415 -1.168,-0.622 -1.277,-1.067 -1.914,-2.852 -1.914,-5.358 v -9.944 h -3.343 v 8.699 c 0,3.031 0.437,5.28 1.31,6.747 0.348,0.596 0.834,1.152 1.459,1.672 0.625,0.518 1.373,0.931 2.246,1.235 L -19.131,0 h 3.785 l 5.961,-10.359 3.364,-5.378 c 0.685,0.415 1.191,0.844 1.521,1.287 0.328,0.443 0.604,1.045 0.824,1.806 0.223,0.761 0.334,1.662 0.334,2.7 V 0 Z"
               inkscape:connector-curvature="0" />
          </g>
          <g
             transform="translate(564.3906,259.2236)"
             id="g3337">
            <path
               id="path3339"
               style="fill:#151922;fill-opacity:1;fill-rule:nonzero;stroke:none"
               d="M 0,0 H 13.674 V -2.678 L 10.189,-16.381 8.096,-26.782 H 4.711 l 2.096,10.401 3.523,13.703 H -3.344 V 5.481 H 0 Z"
               inkscape:connector-curvature="0" />
          </g>
          <g
             transform="translate(564.3906,259.2236)"
             id="g3341">
            <path
               id="path3343"
               style="fill:none;stroke:#151922;stroke-width:0.85000002;stroke-linecap:butt;stroke-linejoin:miter;stroke-miterlimit:10;stroke-dasharray:none;stroke-opacity:1"
               d="M 0,0 H 13.674 V -2.678 L 10.189,-16.381 8.096,-26.782 H 4.711 l 2.096,10.401 3.523,13.703 H -3.344 V 5.481 H 0 Z"
               inkscape:connector-curvature="0" />
          </g>
          <g
             transform="translate(582.623,232.1504)"
             id="g3345">
            <path
               id="path3347"
               style="fill:#151922;fill-opacity:1;fill-rule:nonzero;stroke:none"
               d="m 0,0 c -0.59,0 -1.262,0.098 -2.014,0.291 v 2.845 c 0.981,-0.139 1.524,-0.208 1.631,-0.208 1.92,0 2.881,1.176 2.881,3.529 v 17.71 l -2.84,-0.271 v 2.928 c 3.746,0.444 7.022,0.664 9.828,0.664 2.389,0 4.403,-0.394 6.041,-1.182 1.719,-0.831 2.901,-2.174 3.545,-4.029 0.334,-0.968 0.502,-2.069 0.502,-3.3 V 0.291 h -3.363 v 18.727 c 0,3.696 -2.397,5.544 -7.19,5.544 -0.589,0 -1.65,-0.042 -3.181,-0.125 V 6.935 C 5.84,4.748 5.357,3.045 4.391,1.827 3.424,0.609 1.961,0 0,0"
               inkscape:connector-curvature="0" />
          </g>
          <g
             transform="translate(582.623,232.1504)"
             id="g3349">
            <path
               id="path3351"
               style="fill:none;stroke:#151922;stroke-width:0.85000002;stroke-linecap:butt;stroke-linejoin:miter;stroke-miterlimit:10;stroke-dasharray:none;stroke-opacity:1"
               d="m 0,0 c -0.59,0 -1.262,0.098 -2.014,0.291 v 2.845 c 0.981,-0.139 1.524,-0.208 1.631,-0.208 1.92,0 2.881,1.176 2.881,3.529 v 17.71 l -2.84,-0.271 v 2.928 c 3.746,0.444 7.022,0.664 9.828,0.664 2.389,0 4.403,-0.394 6.041,-1.182 1.719,-0.831 2.901,-2.174 3.545,-4.029 0.334,-0.968 0.502,-2.069 0.502,-3.3 V 0.291 h -3.363 v 18.727 c 0,3.696 -2.397,5.544 -7.19,5.544 -0.589,0 -1.65,-0.042 -3.181,-0.125 V 6.935 C 5.84,4.748 5.357,3.045 4.391,1.827 3.424,0.609 1.961,0 0,0 Z"
               inkscape:connector-curvature="0" />
          </g>
        </g>
      </g>
    </g>
    <text
       xml:space="preserve"
       style="font-style:normal;font-variant:normal;font-weight:normal;font-stretch:normal;font-size:44.86616135px;line-height:1.25;font-family:'Varela Round';-inkscape-font-specification:'Varela Round';letter-spacing:0px;word-spacing:0px;fill:#000000;fill-opacity:1;stroke:none;stroke-width:1.68248117"
       x="374.74808"
       y="579.22339"
       id="text4889"><tspan
         sodipodi:role="line"
         id="tspan4887"
         x="374.74808"
         y="579.22339"
         style="font-style:normal;font-variant:normal;font-weight:normal;font-stretch:normal;font-family:'Open Sans Hebrew';-inkscape-font-specification:'Open Sans Hebrew';text-align:center;text-anchor:middle;stroke-width:1.68248117">בית הספר לעבודה סוציאלית</tspan><tspan
         sodipodi:role="line"
         x="374.74808"
         y="635.36932"
         style="font-style:normal;font-variant:normal;font-weight:normal;font-stretch:normal;font-family:'Open Sans Hebrew';-inkscape-font-specification:'Open Sans Hebrew';text-align:center;text-anchor:middle;stroke-width:1.68248117"
         id="tspan4891">ע&quot;ש בוב שאפל</tspan></text>
  </g>
</svg>
