<?xml version="1.0" encoding="UTF-8" standalone="no"?>
<!-- Created with Inkscape (http://www.inkscape.org/) -->

<svg
   xmlns:dc="http://purl.org/dc/elements/1.1/"
   xmlns:cc="http://creativecommons.org/ns#"
   xmlns:rdf="http://www.w3.org/1999/02/22-rdf-syntax-ns#"
   xmlns:svg="http://www.w3.org/2000/svg"
   xmlns="http://www.w3.org/2000/svg"
   xmlns:sodipodi="http://sodipodi.sourceforge.net/DTD/sodipodi-0.dtd"
   xmlns:inkscape="http://www.inkscape.org/namespaces/inkscape"
   width="500mm"
   height="465mm"
   viewBox="0 0 500 465"
   version="1.1"
   id="svg8"
   inkscape:version="0.92.1 r"
   sodipodi:docname="clinic-logo.svg">
  <defs
     id="defs2" />
  <sodipodi:namedview
     id="base"
     pagecolor="#ffffff"
     bordercolor="#666666"
     borderopacity="1.0"
     inkscape:pageopacity="0.0"
     inkscape:pageshadow="2"
     inkscape:zoom="0.35"
     inkscape:cx="91.428474"
     inkscape:cy="1032.8572"
     inkscape:document-units="mm"
     inkscape:current-layer="layer1"
     showgrid="false"
     fit-margin-top="0"
     fit-margin-left="0"
     fit-margin-right="0"
     fit-margin-bottom="0"
     inkscape:window-width="3840"
     inkscape:window-height="2056"
     inkscape:window-x="0"
     inkscape:window-y="50"
     inkscape:window-maximized="1" />
  <metadata
     id="metadata5">
    <rdf:RDF>
      <cc:Work
         rdf:about="">
        <dc:format>image/svg+xml</dc:format>
        <dc:type
           rdf:resource="http://purl.org/dc/dcmitype/StillImage" />
        <dc:title></dc:title>
      </cc:Work>
    </rdf:RDF>
  </metadata>
  <g
     inkscape:label="Layer 1"
     inkscape:groupmode="layer"
     id="layer1"
     transform="translate(-24.946428,141.54163)">
    <rect
       id="rect10"
       width="500"
       height="465"
       x="24.946428"
       y="-141.54163"
       style="fill:#1d5472;fill-opacity:1;stroke-width:0.29042017" />
    <g
       id="g4742">
      <g
         id="text4649"
         style="font-style:normal;font-variant:normal;font-weight:normal;font-stretch:normal;font-size:114.65277863px;line-height:1.25;font-family:'Varela Round';-inkscape-font-specification:'Varela Round';letter-spacing:0px;word-spacing:0px;opacity:1;fill:#ffffff;fill-opacity:1;stroke:none;stroke-width:0.26458332"
         aria-label="הקליניקה">
        <path
           id="path4673"
           style="fill:#ffffff;fill-opacity:1;stroke-width:0.26458332"
           d="m 490.28524,-14.313287 q -2.1784,0 -3.78354,-1.490486 -1.49048,-1.605139 -1.49048,-3.783542 v -38.523333 q 0,-6.076598 -1.83445,-9.401528 -1.83444,-3.439584 -5.96194,-4.815417 -4.1275,-1.490486 -11.46528,-1.490486 -10.08945,0 -23.61847,2.522361 -1.9491,0.343958 -3.66889,-0.687917 -1.60514,-1.146527 -1.9491,-3.095625 -0.22931,-1.834444 0.91722,-3.32493 1.26118,-1.490486 3.21028,-1.949097 6.19125,-1.261181 13.07042,-1.949098 6.87916,-0.687916 12.49715,-0.687916 10.66271,0 16.96861,2.522361 6.42056,2.522361 9.28688,8.025694 2.98097,5.388681 2.98097,14.331598 v 38.523333 q 0,2.178403 -1.49049,3.783542 -1.49048,1.490486 -3.66889,1.490486 z m -45.28784,0 q -2.17841,0 -3.78355,-1.490486 -1.49048,-1.605139 -1.49048,-3.783542 v -30.841597 q 0,-2.178403 1.49048,-3.668889 1.49049,-1.605139 3.66889,-1.605139 2.17841,0 3.66889,1.605139 1.60514,1.490486 1.60514,3.668889 v 30.841597 q 0,2.178403 -1.49049,3.783542 -1.49048,1.490486 -3.66888,1.490486 z" />
        <path
           id="path4675"
           style="fill:#ffffff;fill-opacity:1;stroke-width:0.26458332"
           d="m 396.98475,-14.542593 q -4.35681,0 -8.36966,-0.802569 -1.83444,-0.458611 -2.98097,-1.719792 -1.14653,-1.26118 -1.14653,-2.980972 0,-2.06375 1.60514,-3.439583 1.71979,-1.490486 3.78354,-1.031875 1.60514,0.343958 3.21028,0.573264 1.71979,0.229305 3.8982,0.229305 12.26784,0 12.26784,-15.592778 v -34.051875 h -41.61895 q -2.06375,0 -3.55424,-1.261181 -1.37583,-1.375833 -1.37583,-3.32493 0,-1.949097 1.37583,-3.210278 1.49049,-1.375833 3.55424,-1.375833 h 45.17319 q 2.86632,0 4.81542,1.719791 2.06375,1.719792 2.06375,4.356806 v 37.1475 q 0,12.955764 -6.19125,18.917709 -6.0766,5.847291 -16.51,5.847291 z M 370.156,7.2414354 q -2.17841,0 -3.78354,-1.6051389 -1.49049,-1.4904862 -1.49049,-3.6688889 V -51.57544 q 0,-2.178403 1.49049,-3.668889 1.49048,-1.605139 3.66888,-1.605139 2.17841,0 3.66889,1.605139 1.60514,1.490486 1.60514,3.668889 V 1.9674076 q 0,2.1784027 -1.49048,3.6688889 -1.49049,1.6051389 -3.66889,1.6051389 z" />
        <path
           id="path4677"
           style="fill:#ffffff;fill-opacity:1;stroke-width:0.26458332"
           d="m 316.49134,-15.230509 q -1.26118,-0.687917 -2.06375,-1.949097 -0.68792,-1.261181 -0.68792,-2.637014 0,-1.146528 0.57326,-2.522362 l 25.22361,-51.020486 H 304.6821 q -2.75167,0 -4.01285,-1.146528 -1.14653,-1.146528 -1.14653,-3.783541 v -15.478126 q 0,-2.178402 1.49049,-3.668889 1.49049,-1.605138 3.43958,-1.605138 1.9491,0 3.43959,1.605138 1.60514,1.490487 1.60514,3.668889 v 11.235973 h 34.16652 q 2.86632,0 4.70077,2.06375 1.9491,1.949097 1.9491,5.044722 0,2.407708 -1.14653,4.700764 l -25.79688,53.198889 q -0.68791,1.375834 -1.94909,2.178403 -1.14653,0.687917 -2.63702,0.687917 -1.26118,0 -2.29305,-0.573264 z" />
        <path
           id="path4679"
           style="fill:#ffffff;fill-opacity:1;stroke-width:0.26458332"
           d="m 279.70391,-42.059259 q -2.1784,0 -3.78354,-1.490487 -1.49048,-1.605138 -1.49048,-3.783541 v -30.382987 q 0,-2.178402 1.49048,-3.668889 1.49049,-1.605138 3.66889,-1.605138 2.1784,0 3.66889,1.605138 1.60514,1.490487 1.60514,3.668889 v 30.382987 q 0,2.178403 -1.49049,3.783541 -1.49048,1.490487 -3.66889,1.490487 z" />
        <path
           id="path4681"
           style="fill:#ffffff;fill-opacity:1;stroke-width:0.26458332"
           d="m 231.25595,-14.886551 q -2.06375,0 -3.55424,-1.26118 -1.37583,-1.375834 -1.37583,-3.324931 0,-1.949097 1.37583,-3.210278 1.49049,-1.375833 3.55424,-1.375833 h 5.27403 q 4.81541,0 6.76451,-3.210278 2.06375,-3.210278 2.06375,-10.892014 v -35.198403 h -8.59896 q -2.06375,0 -3.55423,-1.261181 -1.37584,-1.375833 -1.37584,-3.32493 0,-1.949097 1.37584,-3.210278 1.49048,-1.375833 3.55423,-1.375833 h 12.1532 q 2.86632,0 4.81541,1.719791 2.06375,1.719792 2.06375,4.356806 v 38.294028 q 0,8.598958 -1.94909,13.643681 -1.83445,5.044722 -6.0766,7.337778 -4.1275,2.293055 -11.23597,2.293055 z" />
        <path
           id="path4683"
           style="fill:#ffffff;fill-opacity:1;stroke-width:0.26458332"
           d="m 210.06131,-42.059259 q -2.17841,0 -3.78355,-1.490487 -1.49048,-1.605138 -1.49048,-3.783541 v -30.382987 q 0,-2.178402 1.49048,-3.668889 1.49049,-1.605138 3.66889,-1.605138 2.17841,0 3.66889,1.605138 1.60514,1.490487 1.60514,3.668889 v 30.382987 q 0,2.178403 -1.49049,3.783541 -1.49048,1.490487 -3.66888,1.490487 z" />
        <path
           id="path4685"
           style="fill:#ffffff;fill-opacity:1;stroke-width:0.26458332"
           d="m 163.42451,-14.542593 q -4.3568,0 -8.36965,-0.802569 -1.83444,-0.458611 -2.98097,-1.719792 -1.14653,-1.26118 -1.14653,-2.980972 0,-2.06375 1.60514,-3.439583 1.71979,-1.490486 3.78354,-1.031875 1.60514,0.343958 3.21028,0.573264 1.71979,0.229305 3.89819,0.229305 12.26785,0 12.26785,-15.592778 V -73.359468 H 134.0734 q -2.06375,0 -3.55423,-1.261181 -1.37584,-1.375833 -1.37584,-3.32493 0,-1.949097 1.37584,-3.210278 1.49048,-1.375833 3.55423,-1.375833 h 45.1732 q 2.86632,0 4.81541,1.719791 2.06375,1.719792 2.06375,4.356806 v 37.1475 q 0,12.955764 -6.19125,18.917709 -6.07659,5.847291 -16.51,5.847291 z M 136.59576,7.2414354 q -2.1784,0 -3.78354,-1.6051389 -1.49049,-1.4904862 -1.49049,-3.6688889 V -51.57544 q 0,-2.178403 1.49049,-3.668889 1.49049,-1.605139 3.66889,-1.605139 2.1784,0 3.66889,1.605139 1.60514,1.490486 1.60514,3.668889 V 1.9674076 q 0,2.1784027 -1.49049,3.6688889 -1.49048,1.6051389 -3.66889,1.6051389 z" />
        <path
           id="path4687"
           style="fill:#ffffff;fill-opacity:1;stroke-width:0.26458332"
           d="m 108.2586,-14.313287 q -2.1784,0 -3.78354,-1.490486 -1.49048,-1.605139 -1.49048,-3.783542 v -38.523333 q 0,-6.076598 -1.83445,-9.401528 -1.834442,-3.439584 -5.961942,-4.815417 -4.1275,-1.490486 -11.465278,-1.490486 -10.089445,0 -23.618473,2.522361 -1.949097,0.343958 -3.668889,-0.687917 -1.605139,-1.146527 -1.949097,-3.095625 -0.229305,-1.834444 0.917222,-3.32493 1.261181,-1.490486 3.210278,-1.949097 6.19125,-1.261181 13.070417,-1.949098 6.879167,-0.687916 12.497153,-0.687916 10.662708,0 16.968609,2.522361 6.42056,2.522361 9.28688,8.025694 2.98097,5.388681 2.98097,14.331598 v 38.523333 q 0,2.178403 -1.49049,3.783542 -1.49048,1.490486 -3.66889,1.490486 z m -45.287843,0 q -2.178403,0 -3.783542,-1.490486 -1.490486,-1.605139 -1.490486,-3.783542 v -30.841597 q 0,-2.178403 1.490486,-3.668889 1.490486,-1.605139 3.668889,-1.605139 2.178403,0 3.668889,1.605139 1.605139,1.490486 1.605139,3.668889 v 30.841597 q 0,2.178403 -1.490486,3.783542 -1.490486,1.490486 -3.668889,1.490486 z" />
      </g>
      <g
         id="text4653"
         style="font-style:normal;font-variant:normal;font-weight:normal;font-stretch:normal;font-size:114.65277863px;line-height:1.25;font-family:'Varela Round';-inkscape-font-specification:'Varela Round';letter-spacing:0px;word-spacing:0px;fill:#ff0000;fill-opacity:1;stroke:none;stroke-width:0.26458332"
         aria-label="לשינוי">
        <path
           id="path4690"
           style="fill:#ff0000;fill-opacity:1;stroke-width:0.26458332"
           d="m 461.62205,132.40542 q -1.26118,-0.68792 -2.06375,-1.9491 -0.68792,-1.26118 -0.68792,-2.63702 0,-1.14652 0.57327,-2.52236 l 25.22361,-51.020483 h -34.85445 q -2.75166,0 -4.01284,-1.146527 -1.14653,-1.146528 -1.14653,-3.783542 V 53.868263 q 0,-2.178403 1.49049,-3.668889 1.49048,-1.605139 3.43958,-1.605139 1.9491,0 3.43958,1.605139 1.60514,1.490486 1.60514,3.668889 v 11.235972 h 34.16653 q 2.86632,0 4.70076,2.06375 1.9491,1.949097 1.9491,5.044722 0,2.407709 -1.14653,4.700764 l -25.79687,53.198889 q -0.68792,1.37583 -1.9491,2.1784 -1.14653,0.68792 -2.63701,0.68792 -1.26118,0 -2.29306,-0.57326 z" />
        <path
           id="path4692"
           style="fill:#ff0000;fill-opacity:1;stroke-width:0.26458332"
           d="m 425.7017,64.530971 q 2.17841,0 3.66889,1.605139 1.49049,1.490486 1.49049,3.668889 v 31.988121 q 0,31.52952 -36.00097,31.52952 -36.00098,0 -36.00098,-31.52952 V 69.804999 q 0,-2.178403 1.49049,-3.668889 1.49049,-1.605139 3.66889,-1.605139 2.1784,0 3.66889,1.605139 1.60514,1.490486 1.60514,3.668889 v 31.988121 q 0,11.57993 6.3059,16.96862 6.42056,5.38868 19.26167,5.38868 12.84111,0 19.14701,-5.38868 6.42056,-5.38869 6.42056,-16.96862 V 69.804999 q 0,-2.178403 1.49048,-3.668889 1.60514,-1.605139 3.78354,-1.605139 z m -30.84159,46.892989 q -2.17841,0 -3.78354,-1.49049 -1.49049,-1.60514 -1.49049,-3.78354 l 0.11465,-36.344931 q 0,-2.178403 1.49049,-3.668889 1.49048,-1.605139 3.66889,-1.605139 2.1784,0 3.66889,1.605139 1.60513,1.490486 1.60513,3.668889 l -0.11465,36.344931 q 0,2.1784 -1.49048,3.78354 -1.49049,1.49049 -3.66889,1.49049 z" />
        <path
           id="path4694"
           style="fill:#ff0000;fill-opacity:1;stroke-width:0.26458332"
           d="m 335.48609,105.57667 q -2.17841,0 -3.78354,-1.49049 -1.49049,-1.60514 -1.49049,-3.78354 V 69.919652 q 0,-2.178403 1.49049,-3.668889 1.49048,-1.605139 3.66888,-1.605139 2.17841,0 3.66889,1.605139 1.60514,1.490486 1.60514,3.668889 v 30.382988 q 0,2.1784 -1.49048,3.78354 -1.49049,1.49049 -3.66889,1.49049 z" />
        <path
           id="path4696"
           style="fill:#ff0000;fill-opacity:1;stroke-width:0.26458332"
           d="m 287.03813,132.74937 q -2.06375,0 -3.55424,-1.26118 -1.37583,-1.37583 -1.37583,-3.32493 0,-1.94909 1.37583,-3.21027 1.49049,-1.37584 3.55424,-1.37584 h 5.27403 q 4.81541,0 6.76451,-3.21028 2.06375,-3.21027 2.06375,-10.89201 V 74.276457 h -8.59896 q -2.06375,0 -3.55423,-1.26118 -1.37584,-1.375834 -1.37584,-3.324931 0,-1.949097 1.37584,-3.210278 1.49048,-1.375833 3.55423,-1.375833 h 12.1532 q 2.86632,0 4.81542,1.719792 2.06375,1.719791 2.06375,4.356805 v 38.294028 q 0,8.59896 -1.9491,13.64368 -1.83445,5.04472 -6.0766,7.33778 -4.1275,2.29305 -11.23597,2.29305 z" />
        <path
           id="path4698"
           style="fill:#ff0000;fill-opacity:1;stroke-width:0.26458332"
           d="m 265.18782,133.32264 q -2.17841,0 -3.78355,-1.49049 -1.49048,-1.60514 -1.49048,-3.78354 V 69.919652 q 0,-2.178403 1.49048,-3.668889 1.49049,-1.605139 3.66889,-1.605139 2.17841,0 3.66889,1.605139 1.60514,1.490486 1.60514,3.668889 v 58.128958 q 0,2.1784 -1.49049,3.78354 -1.49048,1.49049 -3.66888,1.49049 z" />
        <path
           id="path4700"
           style="fill:#ff0000;fill-opacity:1;stroke-width:0.26458332"
           d="m 235.16491,105.57667 q -2.1784,0 -3.78354,-1.49049 -1.49049,-1.60514 -1.49049,-3.78354 V 69.919652 q 0,-2.178403 1.49049,-3.668889 1.49048,-1.605139 3.66889,-1.605139 2.1784,0 3.66889,1.605139 1.60514,1.490486 1.60514,3.668889 v 30.382988 q 0,2.1784 -1.49049,3.78354 -1.49049,1.49049 -3.66889,1.49049 z" />
      </g>
      <g
         id="text4657"
         style="font-style:normal;font-variant:normal;font-weight:normal;font-stretch:normal;font-size:114.65277863px;line-height:1.25;font-family:'Varela Round';-inkscape-font-specification:'Varela Round';letter-spacing:0px;word-spacing:0px;fill:#ff0000;fill-opacity:1;stroke:none;stroke-width:0.26458332"
         aria-label="מדיניות">
        <path
           id="path4703"
           style="fill:#ff0000;fill-opacity:1;stroke-width:0.26458332"
           d="m 440.29664,280.95843 q -2.1784,0 -3.66889,-1.49049 -1.49048,-1.49049 -1.49048,-3.66889 v -58.35826 q 0,-2.17841 1.49048,-3.66889 1.49049,-1.60514 3.66889,-1.60514 2.1784,0 3.66889,1.60514 1.60514,1.49048 1.60514,3.66889 v 5.27402 q 4.47146,-4.24215 12.03854,-7.45243 7.56708,-3.21027 15.01951,-3.21027 11.23598,0 16.96862,6.87916 5.84729,6.87917 5.84729,20.29354 v 36.57424 q 0,2.1784 -1.26118,3.43958 -1.14653,1.14653 -3.43959,1.14653 h -25.79687 q -1.83445,0 -3.21028,-1.37583 -1.37583,-1.37583 -1.37583,-3.21028 0,-1.9491 1.37583,-3.21028 1.37583,-1.37583 3.21028,-1.37583 h 20.06423 v -30.8416 q 0,-7.33778 -1.37583,-11.35062 -1.26118,-4.1275 -4.3568,-5.84729 -2.98098,-1.7198 -8.48431,-1.7198 -6.42056,0 -13.75833,3.55424 -7.33778,3.43958 -11.46528,7.79639 v 42.99479 q 0,2.1784 -1.60514,3.66889 -1.49049,1.49049 -3.66889,1.49049 z" />
        <path
           id="path4705"
           style="fill:#ff0000;fill-opacity:1;stroke-width:0.26458332"
           d="m 414.99781,212.74002 q 1.94909,0 3.32493,1.37584 1.37583,1.26118 1.37583,3.21027 0,1.9491 -1.37583,3.32493 -1.37584,1.26119 -3.32493,1.26119 h -5.15938 q -4.1275,6.07659 -4.1275,18.9177 v 34.9691 q 0,2.1784 -1.60514,3.66889 -1.49048,1.49049 -3.66889,1.49049 -2.1784,0 -3.66889,-1.49049 -1.49048,-1.49049 -1.49048,-3.66889 v -35.42771 q 0,-12.49715 4.93007,-18.45909 h -34.73979 q -1.83445,0 -3.21028,-1.37584 -1.37583,-1.37583 -1.37583,-3.21028 0,-1.94909 1.37583,-3.21027 1.37583,-1.37584 3.21028,-1.37584 z" />
        <path
           id="path4707"
           style="fill:#ff0000;fill-opacity:1;stroke-width:0.26458332"
           d="m 341.86544,253.21245 q -2.17841,0 -3.78355,-1.49048 -1.49048,-1.60514 -1.49048,-3.78354 v -30.38299 q 0,-2.1784 1.49048,-3.66889 1.49049,-1.60514 3.66889,-1.60514 2.17841,0 3.66889,1.60514 1.60514,1.49049 1.60514,3.66889 v 30.38299 q 0,2.1784 -1.49049,3.78354 -1.49048,1.49048 -3.66888,1.49048 z" />
        <path
           id="path4709"
           style="fill:#ff0000;fill-opacity:1;stroke-width:0.26458332"
           d="m 293.41747,280.38516 q -2.06375,0 -3.55423,-1.26118 -1.37584,-1.37583 -1.37584,-3.32493 0,-1.9491 1.37584,-3.21028 1.49048,-1.37583 3.55423,-1.37583 h 5.27403 q 4.81542,0 6.76451,-3.21028 2.06375,-3.21028 2.06375,-10.89201 v -35.1984 h -8.59896 q -2.06375,0 -3.55423,-1.26119 -1.37583,-1.37583 -1.37583,-3.32493 0,-1.94909 1.37583,-3.21027 1.49048,-1.37584 3.55423,-1.37584 h 12.1532 q 2.86632,0 4.81542,1.71979 2.06375,1.7198 2.06375,4.35681 v 38.29403 q 0,8.59896 -1.9491,13.64368 -1.83445,5.04472 -6.0766,7.33778 -4.1275,2.29305 -11.23597,2.29305 z" />
        <path
           id="path4711"
           style="fill:#ff0000;fill-opacity:1;stroke-width:0.26458332"
           d="m 272.22283,253.21245 q -2.17841,0 -3.78354,-1.49048 -1.49049,-1.60514 -1.49049,-3.78354 v -30.38299 q 0,-2.1784 1.49049,-3.66889 1.49048,-1.60514 3.66888,-1.60514 2.17841,0 3.66889,1.60514 1.60514,1.49049 1.60514,3.66889 v 30.38299 q 0,2.1784 -1.49048,3.78354 -1.49049,1.49048 -3.66889,1.49048 z" />
        <path
           id="path4713"
           style="fill:#ff0000;fill-opacity:1;stroke-width:0.26458332"
           d="m 242.23218,280.95843 q -2.1784,0 -3.78354,-1.49049 -1.49049,-1.60514 -1.49049,-3.78354 v -58.12896 q 0,-2.1784 1.49049,-3.66889 1.49048,-1.60514 3.66889,-1.60514 2.1784,0 3.66888,1.60514 1.60514,1.49049 1.60514,3.66889 v 58.12896 q 0,2.1784 -1.49048,3.78354 -1.49049,1.49049 -3.66889,1.49049 z" />
        <path
           id="path4715"
           style="fill:#ff0000;fill-opacity:1;stroke-width:0.26458332"
           d="m 195.19408,212.74002 q 10.77737,0 16.73931,5.73264 5.96194,5.61799 5.96194,18.6884 v 38.52334 q 0,2.1784 -1.49048,3.78354 -1.49049,1.49049 -3.66889,1.49049 -2.1784,0 -3.78354,-1.49049 -1.49049,-1.60514 -1.49049,-3.78354 v -38.52334 q 0,-8.71361 -3.21028,-11.92388 -3.21027,-3.32493 -9.05757,-3.32493 h -19.03236 q -1.49048,3.55423 -1.83444,7.68173 -0.34396,4.01285 -0.34396,10.54806 v 35.65701 q 0,1.9491 -1.37583,3.32493 -1.37584,1.26118 -3.32493,1.26118 h -14.44625 q -1.83445,0 -3.21028,-1.37583 -1.37584,-1.37583 -1.37584,-3.21028 0,-1.9491 1.37584,-3.21028 1.37583,-1.37583 3.21028,-1.37583 h 8.71361 v -31.52951 q 0,-11.23598 2.98097,-17.77118 h -6.3059 q -2.06375,0 -3.55424,-1.26119 -1.37583,-1.37583 -1.37583,-3.32493 0,-1.94909 1.37583,-3.21027 1.49049,-1.37584 3.55424,-1.37584 z" />
      </g>
    </g>
  </g>
</svg>
